# xmcd
#
# Track frame offsets:
#	150
#	21369
#	38592
#	53033
#	83513
#	100653
#	125348
#	137831
#
# Disc length: 2049 seconds
#
# Revision: 0
# Processed by: cddbd v1.4PL0 Copyright (c) Steve Scherf et al.
# Submitted via: EasyCDDAExtractor 5.0.0.0
#
DISCID=5a07ff08
DTITLE=Robin Trower  - Guitar Bandit (Live boot SF '73) 
DYEAR=1900
DGENRE=
TTITLE0=The Fool and Me 
TTITLE1=Twice Removed from Yesterday
TTITLE2=Lady Love 
TTITLE3=Daydream 
TTITLE4=Day of the Eagle 
TTITLE5=I Cant Wait Much Longer 
TTITLE6=Man of the World
TTITLE7=Sinner's Song
EXTD=
EXTT0=
EXTT1=
EXTT2=
EXTT3=
EXTT4=
EXTT5=
EXTT6=
EXTT7=
PLAYORDER=
